<svg width="41" height="40" viewBox="0 0 41 40" fill="none" xmlns="http://www.w3.org/2000/svg">
<path d="M19.1284 0.633983C19.4849 -0.211327 20.6827 -0.211328 21.0392 0.633982L22.9432 5.14917C23.2127 5.78831 24.0216 5.9877 24.5573 5.54702L28.3415 2.43385C29.05 1.85101 30.1106 2.40769 30.0334 3.32183L29.621 8.20466C29.5626 8.89584 30.1862 9.44832 30.8654 9.30705L35.6629 8.30909C36.561 8.12226 37.2415 9.10808 36.7483 9.88163L34.114 14.0135C33.7411 14.5984 34.0365 15.3774 34.7035 15.5679L39.4153 16.9138C40.2974 17.1657 40.4418 18.3549 39.6456 18.8106L35.3928 21.245C34.7908 21.5896 34.6904 22.4166 35.1924 22.8953L38.739 26.2766C39.403 26.9097 38.9782 28.0297 38.0615 28.0633L33.1645 28.2424C32.4713 28.2678 31.9981 28.9534 32.2202 29.6106L33.7891 34.2528C34.0828 35.1219 33.1862 35.9162 32.3589 35.5199L27.9396 33.4028C27.314 33.1031 26.5763 33.4903 26.4676 34.1754L25.6995 39.015C25.5557 39.9211 24.3926 40.2077 23.8442 39.4723L20.915 35.544C20.5004 34.9879 19.6672 34.9879 19.2526 35.544L16.3234 39.4723C15.775 40.2077 14.6119 39.9211 14.4681 39.015L13.7 34.1754C13.5913 33.4903 12.8536 33.1031 12.228 33.4028L7.8087 35.5199C6.98135 35.9162 6.08473 35.1219 6.37846 34.2528L7.94743 29.6106C8.16952 28.9534 7.69624 28.2678 7.00306 28.2424L2.10612 28.0633C1.18934 28.0297 0.764573 26.9097 1.42855 26.2767L4.97516 22.8953C5.47719 22.4166 5.37677 21.5896 4.77478 21.245L0.52201 18.8106C-0.274171 18.3549 -0.129786 17.1657 0.752327 16.9138L5.4641 15.5679C6.13106 15.3774 6.4265 14.5984 6.0536 14.0135L3.41927 9.88163C2.92608 9.10808 3.60654 8.12226 4.50471 8.30909L9.30223 9.30705C9.98134 9.44832 10.605 8.89584 10.5466 8.20466L10.1342 3.32183C10.057 2.40769 11.1176 1.85101 11.8261 2.43385L15.6103 5.54702C16.146 5.9877 16.9549 5.78831 17.2244 5.14917L19.1284 0.633983Z" fill="black"/>
</svg>
