<svg width="41" height="41" viewBox="0 0 41 41" fill="none" xmlns="http://www.w3.org/2000/svg">
<path d="M40.4777 18.2563C40.3898 17.2283 40.1422 15.9315 39.7388 14.5529C39.3354 13.1743 38.8518 11.9479 38.3748 11.0341C34.851 10.9957 31.4129 12.2959 28.3301 13.8822C28.1606 13.9682 27.9665 14.0739 27.7573 14.1925C27.9217 14.0114 28.0655 13.8479 28.1859 13.7042C30.4055 11.0448 32.4318 7.97818 33.1643 4.53903C32.3728 3.87469 31.2804 3.13471 30.0204 2.44123C28.7605 1.74775 27.5507 1.22465 26.5628 0.914043C24.0474 3.37285 22.5367 6.72185 21.4766 10.0205C21.4171 10.2012 21.3589 10.4126 21.2951 10.6467C21.2831 10.4013 21.2688 10.184 21.2533 9.99724C20.9414 6.54989 20.198 2.94977 18.2811 6.38742e-06C17.2518 0.0877173 15.9526 0.333842 14.5715 0.737052C13.1917 1.1391 11.9627 1.62248 11.0465 2.09803C11.0085 5.6167 12.313 9.04883 13.9023 12.1267C13.9883 12.2962 14.094 12.4903 14.2127 12.6982C14.0315 12.5351 13.8668 12.3899 13.723 12.2708C11.0595 10.0547 7.98632 8.03045 4.54071 7.29865C3.8752 8.08883 3.13533 9.17998 2.44079 10.4373C1.74624 11.6946 1.22334 12.9019 0.911568 13.8884C3.37577 16.4004 6.72996 17.9102 10.0352 18.9683C10.2158 19.0278 10.4286 19.086 10.6626 19.1498C10.4173 19.1618 10.2 19.1749 10.0132 19.1917C6.56085 19.5019 2.95458 20.2422 -6.18294e-05 22.1562C0.0877525 23.1842 0.335355 24.481 0.738772 25.8595C1.14219 27.2381 1.62578 28.4646 2.10281 29.3784C5.62656 29.4168 9.06474 28.1166 12.1475 26.5303C12.317 26.4443 12.5111 26.3385 12.7203 26.22C12.5559 26.401 12.4121 26.5646 12.2917 26.7083C10.0721 29.3677 8.04581 32.4343 7.31326 35.8734C8.10481 36.5378 9.19733 37.2765 10.4572 37.9712C11.7171 38.6647 12.9269 39.1878 13.9136 39.4983C16.429 37.0395 17.9397 33.6905 18.9998 30.3919C19.0592 30.2112 19.1174 29.9997 19.1812 29.7657C19.1933 30.0098 19.2075 30.2284 19.223 30.4151C19.535 33.8625 20.2784 37.4626 22.1953 40.4124C23.2245 40.3246 24.5238 40.0785 25.9049 39.6753C27.2843 39.2771 28.5136 38.7899 29.4299 38.3143C29.4679 34.7957 28.1633 31.3635 26.5741 28.2856C26.4881 28.1162 26.3823 27.9221 26.2636 27.7141C26.4448 27.8773 26.6095 28.0224 26.7534 28.1416C29.4169 30.3577 32.49 32.3819 35.9356 33.1137C36.6011 32.3235 37.341 31.2324 38.0356 29.9751C38.7301 28.7178 39.253 27.5105 39.5648 26.524C37.1006 24.012 33.7464 22.5022 30.4411 21.4441C30.2605 21.3846 30.0478 21.3264 29.8137 21.2625C30.059 21.2505 30.2776 21.2376 30.4644 21.2208C33.9168 20.9106 37.523 20.1702 40.4777 18.2563ZM21.3825 24.1383C19.2063 24.7697 16.9286 23.5189 16.2969 21.3453C15.6639 19.1715 16.9169 16.8991 19.093 16.2689C21.2692 15.6374 23.5468 16.8883 24.1785 19.0619C24.8116 21.2344 23.5598 23.5081 21.3825 24.1383Z" fill="black"/>
</svg>
