<svg width="33" height="40" viewBox="0 0 33 40" fill="none" xmlns="http://www.w3.org/2000/svg">
<path d="M29.7681 15.7595C29.8442 15.6795 29.9126 15.6086 29.9835 15.5402C31.0464 14.5084 31.8125 13.2933 32.2524 11.8758C32.6148 10.7097 32.7335 9.51402 32.6613 8.30413C32.5993 7.26064 32.3814 6.24552 31.9712 5.27555C31.3366 3.77157 30.3318 2.56039 29.0226 1.60332C28.0461 0.890025 26.9472 0.445024 25.7631 0.20124C24.9105 0.0258195 24.0476 0.00647171 23.1834 0.00647171C21.4679 0.00518185 19.7524 0.0038919 18.0368 0.0038919H18.0252C15.7654 0.0038919 13.5056 0.00389201 11.2457 2.24306e-05C9.40382 -0.00255729 7.60834 0.216719 5.91604 1.00095C4.3953 1.70522 3.10414 2.70486 2.08902 4.03599C0.685656 5.87662 0.0226764 7.98941 0.0149372 10.2815C-0.00570051 16.051 -0.000547331 21.8193 0.00461211 27.5888V29.5687C0.00719182 29.9286 0.00719929 30.2898 0.00719929 30.6497V30.6754C0.00719929 31.4842 0.106519 32.2878 0.306447 33.0746C0.64568 34.4083 1.23772 35.6156 2.12514 36.6733C3.3131 38.0883 4.79903 39.0544 6.57 39.569C7.7915 39.9237 9.03878 40.0308 10.3145 39.947C12.0519 39.8309 13.6552 39.3394 15.0818 38.3398C17.3893 36.721 18.7024 34.4999 19.0042 31.6957C19.0868 30.9244 19.1023 30.896 19.902 30.8934C20.356 30.8921 20.81 30.8934 21.2628 30.8947C22.1954 30.8973 23.1266 30.8999 24.0592 30.8792C24.7145 30.8651 25.3787 30.8096 26.0185 30.6729C27.9765 30.2562 29.612 29.2863 30.8439 27.6868C31.6075 26.6949 32.1079 25.5805 32.3491 24.3487C32.5078 23.5374 32.5491 22.7222 32.5104 21.898C32.4665 20.9873 32.2833 20.1076 31.966 19.255C31.5443 18.1187 30.8774 17.1422 30.0106 16.2974C29.9281 16.2174 29.8532 16.1284 29.7733 16.0343V16.0317C29.7539 16.0123 29.7372 15.9917 29.7204 15.9711C29.6959 15.9427 29.6714 15.9143 29.6456 15.8846C29.6675 15.8614 29.6894 15.8395 29.7101 15.8188C29.7294 15.7995 29.7475 15.7802 29.7655 15.7608L29.7681 15.7595Z" fill="black"/>
</svg>
