<svg width="40" height="40" viewBox="0 0 40 40" fill="none" xmlns="http://www.w3.org/2000/svg">
<path d="M39.6996 8.17576C39.4101 6.23123 38.6366 4.51707 37.2956 3.06543C36.0576 1.72575 34.5661 0.815903 32.7953 0.351327C31.6706 0.0553374 30.5291 0 29.3773 0C27.1393 0 24.9001 0 22.6609 0H19.9738V0.00514771C19.1527 0.00514771 18.3317 0.00514771 17.5107 0.00514771C15.0462 0.00514771 12.5818 0.00514765 10.1186 0.00772147C9.6399 0.00772147 9.15729 0.0115823 8.68242 0.0617719C7.15357 0.222636 5.7148 0.66276 4.40343 1.48638C3.13968 2.28041 2.13074 3.3241 1.37275 4.60072C0.760181 5.63153 0.371539 6.75243 0.173355 7.93639C-0.104619 9.60166 -0.0518523 11.2592 0.357386 12.8962C0.721583 14.3491 1.37919 15.6707 2.37783 16.7891C4.1023 18.7182 6.29905 19.7052 8.86644 19.8995C9.15343 19.9214 9.43913 19.9394 9.72611 19.9549C9.92043 19.9652 10.0324 20.0553 10.0388 20.256C10.0414 20.3268 10.0453 20.3963 10.0478 20.4671C10.0556 20.6421 10.0633 20.8184 10.0633 20.9934C10.0684 21.9213 10.0723 22.8479 10.0749 23.7757V23.7937C10.0852 26.1823 10.0942 28.5708 10.1212 30.9606C10.1276 31.5551 10.2344 32.1574 10.3683 32.7404C10.6553 33.9951 11.2202 35.1353 12.0104 36.1468C12.3952 36.6384 12.852 37.0798 13.3102 37.5084C13.8507 38.0141 14.4787 38.4079 15.1324 38.7567C16.0835 39.2637 17.1014 39.5752 18.158 39.7463C19.2982 39.9303 20.4448 39.9213 21.5915 39.7553C22.6583 39.6009 23.6775 39.292 24.6312 38.8056C25.9785 38.1184 27.1097 37.1661 27.9964 35.928C29.1302 34.3464 29.7363 32.5885 29.7492 30.6478C29.7634 28.3584 29.7621 26.069 29.7595 23.7796C29.7595 22.7874 29.7582 21.7952 29.7595 20.803C29.7595 20.7849 29.7595 20.7669 29.7582 20.7489V20.7C29.7582 20.597 29.7543 20.4941 29.7672 20.3937C29.8032 20.1132 29.9396 19.9819 30.2202 19.9536C30.4197 19.933 30.6192 19.9214 30.8186 19.9085C30.8495 19.906 30.8817 19.9047 30.9139 19.9021C32.2407 19.8172 33.507 19.5006 34.6922 18.897C36.8517 17.798 38.3393 16.0864 39.1784 13.8317C39.8592 12.003 39.984 10.1061 39.697 8.17962L39.6996 8.17576Z" fill="black"/>
</svg>
