<svg width="70" height="78" viewBox="0 0 70 78" fill="none" xmlns="http://www.w3.org/2000/svg">
<path d="M0 16.9878C0 12.3127 1.5341 7.98745 4.63902 4.80538C7.75509 1.61194 12.0362 0 16.6915 0C19.0438 0.000108792 21.3283 0.490172 23.5053 1.64974C25.6264 2.77968 27.3848 4.40622 28.9241 6.31129L36.8332 16.0278C37.0156 12.6706 37.6691 10.0016 39.6197 7.15002H39.618C42.4946 2.75973 47.6407 3.85838e-05 52.9667 0C57.5964 0 61.7732 1.98593 64.7644 5.19529L65.3466 5.8538L65.3951 5.91272L65.4437 5.97337C66.732 7.60078 67.731 9.35682 68.3619 11.4789C68.9712 13.5283 69.1625 15.6739 69.1625 17.9756V58.304C69.1625 61.0077 69.0454 63.3772 68.5369 65.5164C67.984 67.8419 67.0287 69.6689 65.7053 71.4101L65.6967 71.4222L65.6863 71.4344C62.633 75.4036 57.8641 77.5654 52.9667 77.5654C47.7189 77.5654 43.3561 75.2029 40.1708 71.067V71.0687L32.4628 61.1894C32.3972 62.9379 32.2046 64.5792 31.754 66.149C31.134 68.3088 30.1251 70.0072 28.8704 71.5921L28.8236 71.6527L28.7734 71.7116C25.72 75.3466 21.181 77.5654 16.2946 77.5654C11.3008 77.5652 6.48476 75.2322 3.39479 71.2593L3.33414 71.1814L3.27695 71.1016C2.08239 69.4425 1.16676 67.7147 0.623851 65.5043C0.12048 63.4547 0 61.2278 0 58.6991V16.9878Z" fill="black"/>
</svg>
