<?xml version="1.0" encoding="UTF-8"?>
<svg id="Layer_2" xmlns="http://www.w3.org/2000/svg" version="1.1" viewBox="0 0 37 37">
  <!-- Generator: Adobe Illustrator 29.1.0, SVG Export Plug-In . SVG Version: 2.1.0 Build 142)  -->
  <defs>
    <style>
      .st0 {
        fill: #231f20;
      }
    </style>
  </defs>
  <g id="Layer_1-2">
    <path class="st0" d="M36.4.6c-.7-.7-1.9-.7-2.6,0l-15.3,15.3L3.2.5C2.5-.2,1.3-.2.5.5S-.2,2.5.5,3.2l15.3,15.3L.5,33.8c-.7.7-.7,1.9,0,2.6.7.7,1.8.8,2.6,0l15.4-15.4,15.2,15.2c.4.4.8.5,1.3.5s1-.2,1.3-.5c.7-.7.7-1.9,0-2.6l-15.2-15.2,15.3-15.3c.7-.7.7-1.9,0-2.6h0Z"/>
  </g>
</svg>