<?xml version="1.0" encoding="UTF-8"?>
<svg id="Layer_2" data-name="Layer 2" xmlns="http://www.w3.org/2000/svg" viewBox="0 0 37 37">
  <defs>
    <style>
      .cls-1 {
        fill: #231f20;
      }
    </style>
  </defs>
  <g id="Layer_1-2" data-name="Layer 1">
    <g>
      <path class="cls-1" d="M26.2,10.81c-.84-.84-2.05-.83-2.94.06l-4.76,4.76-4.76-4.76c-.87-.87-2.1-.89-2.94-.06-.83.83-.82,2.04.07,2.93l4.76,4.76-4.76,4.76c-.87.87-.89,2.11-.06,2.94s2.04.82,2.93-.07l4.76-4.76,4.76,4.76c.88.88,2.08.91,2.93.07.84-.84.83-2.05-.06-2.94l-4.76-4.76,4.76-4.76c.88-.88.91-2.08.07-2.93Z"/>
      <path class="cls-1" d="M18.5,0C8.28,0,0,8.28,0,18.5s8.28,18.5,18.5,18.5,18.5-8.28,18.5-18.5S28.72,0,18.5,0ZM18.5,34.14c-8.62,0-15.64-7.02-15.64-15.64S9.88,2.86,18.5,2.86s15.64,7.02,15.64,15.64-7.02,15.64-15.64,15.64Z"/>
    </g>
  </g>
</svg>