<?xml version="1.0" encoding="UTF-8"?>
<svg id="Layer_2" data-name="Layer 2" xmlns="http://www.w3.org/2000/svg" viewBox="0 0 37 37">
  <defs>
    <style>
      .cls-1 {
        fill: #231f20;
      }
    </style>
  </defs>
  <g id="Layer_1-2" data-name="Layer 1">
    <g>
      <path class="cls-1" d="M28.15,8.85c-.73-.73-1.91-.73-2.64,0l-7.01,7.01-7.01-7.01c-.73-.73-1.91-.73-2.64,0-.73.73-.73,1.91,0,2.64l7.01,7.01-7.01,7.01c-.73.73-.73,1.91,0,2.64.67.67,1.77.76,2.56.07l7.1-7.08,7.01,7.01c.35.35.82.55,1.32.55s.97-.2,1.32-.55c.73-.73.72-1.91,0-2.64l-7.01-7.01,7.01-7.01c.73-.73.73-1.91,0-2.64Z"/>
      <path class="cls-1" d="M18.5,0C8.28,0,0,8.28,0,18.5s8.28,18.5,18.5,18.5,18.5-8.28,18.5-18.5S28.72,0,18.5,0ZM18.5,34.14c-8.62,0-15.64-7.02-15.64-15.64S9.88,2.86,18.5,2.86s15.64,7.02,15.64,15.64-7.02,15.64-15.64,15.64Z"/>
    </g>
  </g>
</svg>