<svg width="44" height="44" viewBox="0 0 44 44" fill="none" xmlns="http://www.w3.org/2000/svg">
<defs>
<linearGradient id="rainbowGradient" x1="0%" y1="0%" x2="100%" y2="0%">
<stop offset="0%" style="stop-color:#ff0000;stop-opacity:1" />
<stop offset="16.66%" style="stop-color:#ffff00;stop-opacity:1" />
<stop offset="33.33%" style="stop-color:#00ff00;stop-opacity:1" />
<stop offset="50%" style="stop-color:#00ffff;stop-opacity:1" />
<stop offset="66.66%" style="stop-color:#0000ff;stop-opacity:1" />
<stop offset="83.33%" style="stop-color:#ff00ff;stop-opacity:1" />
<stop offset="100%" style="stop-color:#ff0000;stop-opacity:1" />
</linearGradient>
<clipPath id="clip0_90_347">
<rect width="43.8462" height="43.8462" fill="white"/>
</clipPath>
</defs>
<g clip-path="url(#clip0_90_347)">
<path d="M33.0007 22.0791C33.0006 16.0466 28.1095 11.1562 22.0769 11.1562C16.0444 11.1564 11.1542 16.0466 11.1541 22.0791C11.1541 28.1117 16.0444 33.0028 22.0769 33.0029V44.0029L21.5115 43.9951C9.66512 43.6951 0.154053 33.9978 0.154053 22.0791C0.154194 9.97151 9.96931 0.156391 22.0769 0.15625C34.1846 0.15625 44.0006 9.97142 44.0007 22.0791L43.9929 22.6455C43.6926 34.4917 33.9954 44.0029 22.0769 44.0029V33.0029C28.1096 33.0029 33.0007 28.1118 33.0007 22.0791Z" fill="url(#rainbowGradient)"/>
</g>
</svg>
