<svg width="79" height="78" viewBox="0 0 79 78" fill="none" xmlns="http://www.w3.org/2000/svg">
<path d="M39.3498 6.09998C57.4298 6.09998 72.1298 20.81 72.1298 38.88C72.1298 56.95 57.4198 71.66 39.3498 71.66C21.2798 71.66 6.56982 56.95 6.56982 38.88C6.56982 20.81 21.2798 6.09998 39.3498 6.09998ZM39.3498 0.0999756C17.9298 0.0999756 0.569824 17.46 0.569824 38.88C0.569824 60.3 17.9298 77.66 39.3498 77.66C60.7698 77.66 78.1298 60.3 78.1298 38.88C78.1298 17.46 60.7698 0.0999756 39.3498 0.0999756Z" fill="#231F20"/>
<path d="M39.3498 16.07C42.1698 16.07 44.0798 18.09 44.0798 20.74C44.0798 23.39 42.1698 25.41 39.3498 25.41C36.5298 25.41 34.6198 23.39 34.6198 20.74C34.6198 18.09 36.5598 16.07 39.3498 16.07ZM35.0698 57.24V33.42C35.0698 30.8 36.8398 28.98 39.3398 28.98C41.8398 28.98 43.5798 30.8 43.5798 33.42V57.24C43.5798 59.86 41.8098 61.68 39.3398 61.68C36.8698 61.68 35.0698 59.83 35.0698 57.24Z" fill="#231F20"/>
</svg>
