<svg width="44" height="44" viewBox="0 0 44 44" fill="none" xmlns="http://www.w3.org/2000/svg">
<g clip-path="url(#clip0_57_29)">
<path d="M37.8027 6.49073L22.1442 22.1493M22.1442 22.1493L6.79876 37.4947M22.1442 22.1493L37.4896 37.4947M22.1442 22.1493L6.4856 6.49072" stroke="black" stroke-width="2"/>
<path d="M42.5431 13.6633L22.0842 22.1376M22.0842 22.1376L2.03449 30.4425M22.0842 22.1376L30.3891 42.1873M22.0842 22.1376L13.6099 1.67871" stroke="black" stroke-width="2"/>
<path d="M30.6786 1.67854L22.2043 22.1374M22.2043 22.1374L13.8994 42.1872M22.2043 22.1374L42.254 30.4423M22.2043 22.1374L1.74536 13.6631" stroke="black" stroke-width="2"/>
<path d="M22.1446 0L22.1446 22.1446M22.1446 22.1446V43.8462M22.1446 22.1446L43.8462 22.1446M22.1446 22.1446L0 22.1446" stroke="black" stroke-width="2"/>
</g>
<defs>
<clipPath id="clip0_57_29">
<rect width="43.8462" height="43.8462" fill="white"/>
</clipPath>
</defs>
</svg>
