<svg width="80" height="80" viewBox="0 0 80 80" fill="none" xmlns="http://www.w3.org/2000/svg">
<path d="M27.54 8.31998C39.77 3.52998 53.62 6.33998 63.02 15.07H58.05C56.4 15.07 55.05 16.41 55.05 18.06C55.05 19.72 56.39 21.06 58.04 21.07L68.35 21.09H68.36C69.53 21.09 70.63 20.63 71.46 19.81C72.29 18.98 72.75 17.88 72.76 16.7L72.78 6.14998C72.78 4.48998 71.44 3.14998 69.79 3.13998C68.14 3.13998 66.79 4.47998 66.79 6.12998V10.38C55.71 0.339982 39.59 -2.86002 25.35 2.72998C8.83004 9.20998 -1.51996 26.05 0.180041 43.7C0.330041 45.25 1.64004 46.41 3.16004 46.41C3.26004 46.41 3.35004 46.41 3.45004 46.4C5.10004 46.24 6.31004 44.77 6.15004 43.13C4.70004 28.14 13.49 13.83 27.53 8.32998L27.54 8.31998Z" fill="#231F20"/>
<path d="M79.64 36.06C79.48 34.41 78.01 33.2 76.37 33.36C74.72 33.52 73.51 34.99 73.67 36.63C75.12 51.62 66.33 65.93 52.29 71.43C40.06 76.22 26.21 73.41 16.81 64.68H21.78C23.43 64.68 24.78 63.34 24.78 61.69C24.78 60.03 23.44 58.69 21.79 58.68L11.48 58.66C9.06004 58.66 7.08004 60.63 7.08004 63.05L7.06004 73.6C7.06004 75.26 8.40004 76.6 10.05 76.61C11.7 76.61 13.05 75.27 13.05 73.62V69.38C20.46 76.09 30.13 79.75 40 79.75C44.86 79.75 49.77 78.86 54.48 77.02C71 70.54 81.35 53.7 79.64 36.05V36.06Z" fill="#231F20"/>
</svg>
